<svg width="392" height="141" viewBox="0 0 392 141" fill="none" xmlns="http://www.w3.org/2000/svg">
<path d="M13.3189 111.385C9.80327 111.385 6.7848 110.142 4.26349 107.656C1.7777 105.135 0.534802 102.116 0.534802 98.6009C0.534802 95.1207 1.7777 92.1378 4.26349 89.652C6.7848 87.1662 9.80327 85.9233 13.3189 85.9233C16.728 85.9233 19.7109 87.1662 22.2678 89.652C24.8246 92.1378 26.103 95.1207 26.103 98.6009C26.103 100.945 25.4993 103.093 24.2919 105.046C23.12 106.964 21.5753 108.509 19.6577 109.68C17.7401 110.817 15.6271 111.385 13.3189 111.385Z" fill="#F5B700"/>
<path d="M68.0641 111.545C62.8439 111.545 58.1919 110.639 54.1081 108.828C50.0243 106.982 46.7928 104.265 44.4135 100.678C42.0698 97.0561 40.8979 92.5462 40.8979 87.1484C40.8979 82.603 41.7324 78.7855 43.4015 75.696C45.0705 72.6065 47.3432 70.1207 50.2196 68.2386C53.0961 66.3565 56.3631 64.9361 60.0208 63.9773C63.714 63.0185 67.5847 62.3438 71.633 61.9531C76.3915 61.456 80.2267 60.9943 83.1387 60.5682C86.0506 60.1065 88.1635 59.4318 89.4775 58.544C90.7914 57.6562 91.4483 56.3423 91.4483 54.6023V54.2827C91.4483 50.9091 90.383 48.299 88.2523 46.4524C86.1571 44.6058 83.1742 43.6825 79.3034 43.6825C75.2196 43.6825 71.9703 44.5881 69.5556 46.3991C67.1408 48.1747 65.5428 50.4119 64.7615 53.1108L43.7743 51.4062C44.8397 46.4347 46.9348 42.1378 50.0598 38.5156C53.1848 34.858 57.2154 32.0526 62.1515 30.0994C67.123 28.1108 72.8759 27.1165 79.41 27.1165C83.9554 27.1165 88.3056 27.6491 92.4604 28.7145C96.6507 29.7798 100.362 31.4311 103.593 33.6683C106.86 35.9055 109.435 38.782 111.317 42.2976C113.199 45.7777 114.14 49.9503 114.14 54.8153V110H92.6202V98.6541H91.981C90.6671 101.211 88.9093 103.466 86.7076 105.419C84.5059 107.337 81.8603 108.846 78.7708 109.947C75.6813 111.012 72.1124 111.545 68.0641 111.545ZM74.5627 95.8842C77.9007 95.8842 80.8482 95.2273 83.405 93.9134C85.9618 92.5639 87.9682 90.7528 89.4242 88.4801C90.8802 86.2074 91.6081 83.6328 91.6081 80.7564V72.0739C90.8979 72.5355 89.9213 72.9616 88.6784 73.3523C87.4711 73.7074 86.1039 74.0447 84.5769 74.3643C83.0499 74.6484 81.5229 74.9148 79.9959 75.1634C78.4689 75.3764 77.084 75.5717 75.8411 75.7493C73.1777 76.1399 70.8517 76.7614 68.8631 77.6136C66.8745 78.4659 65.3297 79.62 64.2289 81.076C63.128 82.4964 62.5776 84.272 62.5776 86.4027C62.5776 89.4922 63.6962 91.8537 65.9334 93.4872C68.2061 95.0852 71.0826 95.8842 74.5627 95.8842ZM132.171 110V0.909088H154.863V41.9247H155.555C156.55 39.723 157.988 37.4858 159.87 35.2131C161.787 32.9048 164.273 30.9872 167.327 29.4602C170.417 27.8977 174.252 27.1165 178.833 27.1165C184.799 27.1165 190.303 28.679 195.346 31.804C200.388 34.8935 204.419 39.5632 207.437 45.8132C210.456 52.0277 211.965 59.8224 211.965 69.1974C211.965 78.3239 210.491 86.0298 207.544 92.3153C204.632 98.5653 200.655 103.306 195.612 106.538C190.605 109.734 184.994 111.332 178.78 111.332C174.376 111.332 170.63 110.604 167.54 109.148C164.486 107.692 161.983 105.863 160.03 103.661C158.077 101.424 156.585 99.169 155.555 96.8963H154.543V110H132.171ZM154.383 69.0909C154.383 73.956 155.058 78.1996 156.407 81.8217C157.757 85.4439 159.71 88.267 162.267 90.2912C164.824 92.2798 167.931 93.2741 171.589 93.2741C175.282 93.2741 178.407 92.2621 180.964 90.2379C183.52 88.1783 185.456 85.3374 186.77 81.7152C188.119 78.0575 188.794 73.8494 188.794 69.0909C188.794 64.3679 188.137 60.2131 186.823 56.6264C185.509 53.0398 183.574 50.2344 181.017 48.2102C178.46 46.1861 175.317 45.174 171.589 45.174C167.895 45.174 164.77 46.1506 162.214 48.1037C159.692 50.0568 157.757 52.8267 156.407 56.4133C155.058 60 154.383 64.2259 154.383 69.0909ZM227.106 140.682V28.1818H249.478V41.9247H250.49C251.485 39.723 252.923 37.4858 254.805 35.2131C256.723 32.9048 259.208 30.9872 262.262 29.4602C265.352 27.8977 269.187 27.1165 273.768 27.1165C279.734 27.1165 285.238 28.679 290.281 31.804C295.324 34.8935 299.354 39.5632 302.373 45.8132C305.391 52.0277 306.9 59.8224 306.9 69.1974C306.9 78.3239 305.426 86.0298 302.479 92.3153C299.567 98.5653 295.59 103.306 290.547 106.538C285.54 109.734 279.929 111.332 273.715 111.332C269.311 111.332 265.565 110.604 262.475 109.148C259.422 107.692 256.918 105.863 254.965 103.661C253.012 101.424 251.52 99.169 250.49 96.8963H249.798V140.682H227.106ZM249.319 69.0909C249.319 73.956 249.993 78.1996 251.343 81.8217C252.692 85.4439 254.645 88.267 257.202 90.2912C259.759 92.2798 262.866 93.2741 266.524 93.2741C270.217 93.2741 273.342 92.2621 275.899 90.2379C278.456 88.1783 280.391 85.3374 281.705 81.7152C283.054 78.0575 283.729 73.8494 283.729 69.0909C283.729 64.3679 283.072 60.2131 281.758 56.6264C280.444 53.0398 278.509 50.2344 275.952 48.2102C273.395 46.1861 270.252 45.174 266.524 45.174C262.831 45.174 259.706 46.1506 257.149 48.1037C254.627 50.0568 252.692 52.8267 251.343 56.4133C249.993 60 249.319 64.2259 249.319 69.0909ZM345.359 111.545C340.139 111.545 335.487 110.639 331.403 108.828C327.319 106.982 324.088 104.265 321.708 100.678C319.365 97.0561 318.193 92.5462 318.193 87.1484C318.193 82.603 319.027 78.7855 320.696 75.696C322.365 72.6065 324.638 70.1207 327.515 68.2386C330.391 66.3565 333.658 64.9361 337.316 63.9773C341.009 63.0185 344.88 62.3438 348.928 61.9531C353.686 61.456 357.522 60.9943 360.434 60.5682C363.346 60.1065 365.458 59.4318 366.772 58.544C368.086 57.6562 368.743 56.3423 368.743 54.6023V54.2827C368.743 50.9091 367.678 48.299 365.547 46.4524C363.452 44.6058 360.469 43.6825 356.598 43.6825C352.515 43.6825 349.265 44.5881 346.85 46.3991C344.436 48.1747 342.838 50.4119 342.056 53.1108L321.069 51.4062C322.135 46.4347 324.23 42.1378 327.355 38.5156C330.48 34.858 334.51 32.0526 339.446 30.0994C344.418 28.1108 350.171 27.1165 356.705 27.1165C361.25 27.1165 365.6 27.6491 369.755 28.7145C373.946 29.7798 377.657 31.4311 380.888 33.6683C384.155 35.9055 386.73 38.782 388.612 42.2976C390.494 45.7777 391.435 49.9503 391.435 54.8153V110H369.915V98.6541H369.276C367.962 101.211 366.204 103.466 364.002 105.419C361.801 107.337 359.155 108.846 356.066 109.947C352.976 111.012 349.407 111.545 345.359 111.545ZM351.858 95.8842C355.196 95.8842 358.143 95.2273 360.7 93.9134C363.257 92.5639 365.263 90.7528 366.719 88.4801C368.175 86.2074 368.903 83.6328 368.903 80.7564V72.0739C368.193 72.5355 367.216 72.9616 365.973 73.3523C364.766 73.7074 363.399 74.0447 361.872 74.3643C360.345 74.6484 358.818 74.9148 357.291 75.1634C355.764 75.3764 354.379 75.5717 353.136 75.7493C350.473 76.1399 348.147 76.7614 346.158 77.6136C344.169 78.4659 342.625 79.62 341.524 81.076C340.423 82.4964 339.873 84.272 339.873 86.4027C339.873 89.4922 340.991 91.8537 343.228 93.4872C345.501 95.0852 348.377 95.8842 351.858 95.8842Z" fill="#344A5F"/>
</svg>
