<svg width="351" height="141" viewBox="0 0 351 141" fill="none" xmlns="http://www.w3.org/2000/svg">
<path d="M27.3864 111.545C22.1662 111.545 17.5142 110.639 13.4304 108.828C9.34659 106.982 6.11506 104.265 3.7358 100.678C1.39205 97.0561 0.220171 92.5462 0.220171 87.1484C0.220171 82.603 1.05469 78.7855 2.72372 75.696C4.39276 72.6065 6.66548 70.1207 9.5419 68.2386C12.4183 66.3565 15.6854 64.9361 19.343 63.9773C23.0362 63.0185 26.907 62.3438 30.9553 61.9531C35.7138 61.456 39.549 60.9943 42.4609 60.5682C45.3729 60.1065 47.4858 59.4318 48.7997 58.544C50.1136 57.6562 50.7706 56.3423 50.7706 54.6023V54.2827C50.7706 50.9091 49.7053 48.299 47.5746 46.4524C45.4794 44.6058 42.4964 43.6825 38.6257 43.6825C34.5419 43.6825 31.2926 44.5881 28.8778 46.3991C26.4631 48.1747 24.8651 50.4119 24.0838 53.1108L3.09659 51.4062C4.16193 46.4347 6.2571 42.1378 9.3821 38.5156C12.5071 34.858 16.5376 32.0526 21.4737 30.0994C26.4453 28.1108 32.1982 27.1165 38.7322 27.1165C43.2777 27.1165 47.6278 27.6491 51.7827 28.7145C55.973 29.7798 59.684 31.4311 62.9155 33.6683C66.1825 35.9055 68.7571 38.782 70.6392 42.2976C72.5213 45.7777 73.4624 49.9503 73.4624 54.8153V110H51.9425V98.6541H51.3033C49.9893 101.211 48.2315 103.466 46.0298 105.419C43.8281 107.337 41.1825 108.846 38.093 109.947C35.0036 111.012 31.4347 111.545 27.3864 111.545ZM33.8849 95.8842C37.223 95.8842 40.1705 95.2273 42.7273 93.9134C45.2841 92.5639 47.2905 90.7528 48.7464 88.4801C50.2024 86.2074 50.9304 83.6328 50.9304 80.7564V72.0739C50.2202 72.5355 49.2436 72.9616 48.0007 73.3523C46.7933 73.7074 45.4261 74.0447 43.8992 74.3643C42.3722 74.6484 40.8452 74.9148 39.3182 75.1634C37.7912 75.3764 36.4062 75.5717 35.1634 75.7493C32.5 76.1399 30.174 76.7614 28.1854 77.6136C26.1967 78.4659 24.652 79.62 23.5511 81.076C22.4503 82.4964 21.8999 84.272 21.8999 86.4027C21.8999 89.4922 23.0185 91.8537 25.2557 93.4872C27.5284 95.0852 30.4048 95.8842 33.8849 95.8842ZM91.4933 110V0.909088H114.185V41.9247H114.877C115.872 39.723 117.31 37.4858 119.192 35.2131C121.11 32.9048 123.596 30.9872 126.65 29.4602C129.739 27.8977 133.574 27.1165 138.155 27.1165C144.121 27.1165 149.625 28.679 154.668 31.804C159.711 34.8935 163.741 39.5632 166.76 45.8132C169.778 52.0277 171.287 59.8224 171.287 69.1974C171.287 78.3239 169.814 86.0298 166.866 92.3153C163.954 98.5653 159.977 103.306 154.934 106.538C149.927 109.734 144.316 111.332 138.102 111.332C133.699 111.332 129.952 110.604 126.863 109.148C123.809 107.692 121.305 105.863 119.352 103.661C117.399 101.424 115.907 99.169 114.877 96.8963H113.865V110H91.4933ZM113.706 69.0909C113.706 73.956 114.38 78.1996 115.73 81.8217C117.079 85.4439 119.032 88.267 121.589 90.2912C124.146 92.2798 127.253 93.2741 130.911 93.2741C134.604 93.2741 137.729 92.2621 140.286 90.2379C142.843 88.1783 144.778 85.3374 146.092 81.7152C147.441 78.0575 148.116 73.8494 148.116 69.0909C148.116 64.3679 147.459 60.2131 146.145 56.6264C144.831 53.0398 142.896 50.2344 140.339 48.2102C137.782 46.1861 134.64 45.174 130.911 45.174C127.218 45.174 124.093 46.1506 121.536 48.1037C119.015 50.0568 117.079 52.8267 115.73 56.4133C114.38 60 113.706 64.2259 113.706 69.0909ZM186.428 140.682V28.1818H208.801V41.9247H209.813C210.807 39.723 212.245 37.4858 214.127 35.2131C216.045 32.9048 218.531 30.9872 221.585 29.4602C224.674 27.8977 228.509 27.1165 233.09 27.1165C239.056 27.1165 244.561 28.679 249.603 31.804C254.646 34.8935 258.676 39.5632 261.695 45.8132C264.713 52.0277 266.222 59.8224 266.222 69.1974C266.222 78.3239 264.749 86.0298 261.801 92.3153C258.889 98.5653 254.912 103.306 249.869 106.538C244.862 109.734 239.252 111.332 233.037 111.332C228.634 111.332 224.887 110.604 221.798 109.148C218.744 107.692 216.24 105.863 214.287 103.661C212.334 101.424 210.843 99.169 209.813 96.8963H209.12V140.682H186.428ZM208.641 69.0909C208.641 73.956 209.316 78.1996 210.665 81.8217C212.014 85.4439 213.968 88.267 216.524 90.2912C219.081 92.2798 222.188 93.2741 225.846 93.2741C229.539 93.2741 232.664 92.2621 235.221 90.2379C237.778 88.1783 239.713 85.3374 241.027 81.7152C242.377 78.0575 243.051 73.8494 243.051 69.0909C243.051 64.3679 242.394 60.2131 241.08 56.6264C239.767 53.0398 237.831 50.2344 235.274 48.2102C232.718 46.1861 229.575 45.174 225.846 45.174C222.153 45.174 219.028 46.1506 216.471 48.1037C213.95 50.0568 212.014 52.8267 210.665 56.4133C209.316 60 208.641 64.2259 208.641 69.0909ZM304.681 111.545C299.461 111.545 294.809 110.639 290.725 108.828C286.642 106.982 283.41 104.265 281.031 100.678C278.687 97.0561 277.515 92.5462 277.515 87.1484C277.515 82.603 278.35 78.7855 280.019 75.696C281.688 72.6065 283.96 70.1207 286.837 68.2386C289.713 66.3565 292.98 64.9361 296.638 63.9773C300.331 63.0185 304.202 62.3438 308.25 61.9531C313.009 61.456 316.844 60.9943 319.756 60.5682C322.668 60.1065 324.781 59.4318 326.095 58.544C327.409 57.6562 328.066 56.3423 328.066 54.6023V54.2827C328.066 50.9091 327 48.299 324.869 46.4524C322.774 44.6058 319.791 43.6825 315.921 43.6825C311.837 43.6825 308.588 44.5881 306.173 46.3991C303.758 48.1747 302.16 50.4119 301.379 53.1108L280.392 51.4062C281.457 46.4347 283.552 42.1378 286.677 38.5156C289.802 34.858 293.833 32.0526 298.769 30.0994C303.74 28.1108 309.493 27.1165 316.027 27.1165C320.573 27.1165 324.923 27.6491 329.078 28.7145C333.268 29.7798 336.979 31.4311 340.21 33.6683C343.477 35.9055 346.052 38.782 347.934 42.2976C349.816 45.7777 350.757 49.9503 350.757 54.8153V110H329.237V98.6541H328.598C327.284 101.211 325.526 103.466 323.325 105.419C321.123 107.337 318.477 108.846 315.388 109.947C312.298 111.012 308.73 111.545 304.681 111.545ZM311.18 95.8842C314.518 95.8842 317.465 95.2273 320.022 93.9134C322.579 92.5639 324.585 90.7528 326.041 88.4801C327.497 86.2074 328.225 83.6328 328.225 80.7564V72.0739C327.515 72.5355 326.539 72.9616 325.296 73.3523C324.088 73.7074 322.721 74.0447 321.194 74.3643C319.667 74.6484 318.14 74.9148 316.613 75.1634C315.086 75.3764 313.701 75.5717 312.458 75.7493C309.795 76.1399 307.469 76.7614 305.48 77.6136C303.492 78.4659 301.947 79.62 300.846 81.076C299.745 82.4964 299.195 84.272 299.195 86.4027C299.195 89.4922 300.313 91.8537 302.551 93.4872C304.823 95.0852 307.7 95.8842 311.18 95.8842Z" fill="#344a5f"/>
</svg>
