<svg width="601" height="118" viewBox="0 0 601 118" fill="none" xmlns="http://www.w3.org/2000/svg">
<path d="M13.3189 117.385C9.80327 117.385 6.7848 116.142 4.26349 113.656C1.7777 111.135 0.534802 108.116 0.534802 104.601C0.534802 101.121 1.7777 98.1378 4.26349 95.652C6.7848 93.1662 9.80327 91.9233 13.3189 91.9233C16.728 91.9233 19.7109 93.1662 22.2678 95.652C24.8246 98.1378 26.103 101.121 26.103 104.601C26.103 106.945 25.4993 109.093 24.2919 111.046C23.12 112.964 21.5753 114.509 19.6577 115.68C17.7401 116.817 15.6271 117.385 13.3189 117.385Z" fill="#F5B700"/>
<path d="M68.0641 117.545C62.8439 117.545 58.1919 116.639 54.1081 114.828C50.0243 112.982 46.7928 110.265 44.4135 106.678C42.0698 103.056 40.8979 98.5462 40.8979 93.1484C40.8979 88.603 41.7324 84.7855 43.4015 81.696C45.0705 78.6065 47.3432 76.1207 50.2196 74.2386C53.0961 72.3565 56.3631 70.9361 60.0208 69.9773C63.714 69.0185 67.5847 68.3438 71.633 67.9531C76.3915 67.456 80.2267 66.9943 83.1387 66.5682C86.0506 66.1065 88.1635 65.4318 89.4775 64.544C90.7914 63.6562 91.4483 62.3423 91.4483 60.6023V60.2827C91.4483 56.9091 90.383 54.299 88.2523 52.4524C86.1571 50.6058 83.1742 49.6825 79.3034 49.6825C75.2196 49.6825 71.9703 50.5881 69.5556 52.3991C67.1408 54.1747 65.5428 56.4119 64.7615 59.1108L43.7743 57.4062C44.8397 52.4347 46.9348 48.1378 50.0598 44.5156C53.1848 40.858 57.2154 38.0526 62.1515 36.0994C67.123 34.1108 72.8759 33.1165 79.41 33.1165C83.9554 33.1165 88.3056 33.6491 92.4604 34.7145C96.6507 35.7798 100.362 37.4311 103.593 39.6683C106.86 41.9055 109.435 44.782 111.317 48.2976C113.199 51.7777 114.14 55.9503 114.14 60.8153V116H92.6202V104.654H91.981C90.6671 107.211 88.9093 109.466 86.7076 111.419C84.5059 113.337 81.8603 114.846 78.7708 115.947C75.6813 117.012 72.1124 117.545 68.0641 117.545ZM74.5627 101.884C77.9007 101.884 80.8482 101.227 83.405 99.9134C85.9618 98.5639 87.9682 96.7528 89.4242 94.4801C90.8802 92.2074 91.6081 89.6328 91.6081 86.7564V78.0739C90.8979 78.5355 89.9213 78.9616 88.6784 79.3523C87.4711 79.7074 86.1039 80.0447 84.5769 80.3643C83.0499 80.6484 81.5229 80.9148 79.9959 81.1634C78.4689 81.3764 77.084 81.5717 75.8411 81.7493C73.1777 82.1399 70.8517 82.7614 68.8631 83.6136C66.8745 84.4659 65.3297 85.62 64.2289 87.076C63.128 88.4964 62.5776 90.272 62.5776 92.4027C62.5776 95.4922 63.6962 97.8537 65.9334 99.4872C68.2061 101.085 71.0826 101.884 74.5627 101.884ZM154.437 68.6989V116H131.745V34.1818H153.371V48.6172H154.33C156.141 43.8587 159.177 40.0945 163.439 37.3246C167.7 34.5192 172.867 33.1165 178.939 33.1165C184.621 33.1165 189.575 34.3594 193.801 36.8452C198.027 39.331 201.312 42.8821 203.655 47.4986C205.999 52.0795 207.171 57.5483 207.171 63.9048V116H184.479V67.9531C184.515 62.946 183.236 59.0398 180.644 56.2344C178.052 53.3935 174.483 51.973 169.937 51.973C166.883 51.973 164.184 52.63 161.841 53.9439C159.532 55.2578 157.721 57.1754 156.407 59.6967C155.129 62.1825 154.472 65.1832 154.437 68.6989ZM225.055 116V34.1818H247.747V116H225.055ZM236.455 23.6349C233.081 23.6349 230.187 22.5163 227.772 20.2791C225.393 18.0064 224.203 15.2898 224.203 12.1293C224.203 9.00426 225.393 6.32315 227.772 4.08594C230.187 1.81321 233.081 0.676841 236.455 0.676841C239.828 0.676841 242.705 1.81321 245.084 4.08594C247.499 6.32315 248.706 9.00426 248.706 12.1293C248.706 15.2898 247.499 18.0064 245.084 20.2791C242.705 22.5163 239.828 23.6349 236.455 23.6349ZM265.925 116V34.1818H287.551V48.6172H288.51C290.214 43.8232 293.055 40.0412 297.032 37.2713C301.01 34.5014 305.768 33.1165 311.308 33.1165C316.919 33.1165 321.695 34.5192 325.637 37.3246C329.579 40.0945 332.207 43.8587 333.52 48.6172H334.373C336.042 43.9297 339.06 40.1832 343.428 37.3778C347.831 34.5369 353.034 33.1165 359.035 33.1165C366.67 33.1165 372.867 35.549 377.626 40.4141C382.42 45.2436 384.817 52.0973 384.817 60.9751V116H362.178V65.4496C362.178 60.9041 360.971 57.495 358.556 55.2223C356.141 52.9496 353.123 51.8132 349.501 51.8132C345.381 51.8132 342.167 53.1271 339.859 55.755C337.551 58.3473 336.397 61.7741 336.397 66.0355V116H314.398V64.9702C314.398 60.9574 313.243 57.7614 310.935 55.3821C308.662 53.0028 305.662 51.8132 301.933 51.8132C299.412 51.8132 297.139 52.4524 295.115 53.7308C293.126 54.9737 291.546 56.7315 290.374 59.0043C289.202 61.2415 288.616 63.8693 288.616 66.8878V116H265.925ZM426.072 117.545C420.852 117.545 416.2 116.639 412.116 114.828C408.032 112.982 404.801 110.265 402.421 106.678C400.078 103.056 398.906 98.5462 398.906 93.1484C398.906 88.603 399.74 84.7855 401.409 81.696C403.078 78.6065 405.351 76.1207 408.227 74.2386C411.104 72.3565 414.371 70.9361 418.029 69.9773C421.722 69.0185 425.593 68.3438 429.641 67.9531C434.399 67.456 438.235 66.9943 441.146 66.5682C444.058 66.1065 446.171 65.4318 447.485 64.544C448.799 63.6562 449.456 62.3423 449.456 60.6023V60.2827C449.456 56.9091 448.391 54.299 446.26 52.4524C444.165 50.6058 441.182 49.6825 437.311 49.6825C433.227 49.6825 429.978 50.5881 427.563 52.3991C425.149 54.1747 423.551 56.4119 422.769 59.1108L401.782 57.4062C402.847 52.4347 404.943 48.1378 408.068 44.5156C411.193 40.858 415.223 38.0526 420.159 36.0994C425.131 34.1108 430.884 33.1165 437.418 33.1165C441.963 33.1165 446.313 33.6491 450.468 34.7145C454.659 35.7798 458.369 37.4311 461.601 39.6683C464.868 41.9055 467.443 44.782 469.325 48.2976C471.207 51.7777 472.148 55.9503 472.148 60.8153V116H450.628V104.654H449.989C448.675 107.211 446.917 109.466 444.715 111.419C442.514 113.337 439.868 114.846 436.779 115.947C433.689 117.012 430.12 117.545 426.072 117.545ZM432.57 101.884C435.909 101.884 438.856 101.227 441.413 99.9134C443.97 98.5639 445.976 96.7528 447.432 94.4801C448.888 92.2074 449.616 89.6328 449.616 86.7564V78.0739C448.906 78.5355 447.929 78.9616 446.686 79.3523C445.479 79.7074 444.112 80.0447 442.585 80.3643C441.058 80.6484 439.531 80.9148 438.004 81.1634C436.477 81.3764 435.092 81.5717 433.849 81.7493C431.186 82.1399 428.86 82.7614 426.871 83.6136C424.882 84.4659 423.338 85.62 422.237 87.076C421.136 88.4964 420.585 90.272 420.585 92.4027C420.585 95.4922 421.704 97.8537 423.941 99.4872C426.214 101.085 429.09 101.884 432.57 101.884ZM489.753 116V34.1818H512.444V116H489.753ZM501.152 23.6349C497.778 23.6349 494.884 22.5163 492.469 20.2791C490.09 18.0064 488.9 15.2898 488.9 12.1293C488.9 9.00426 490.09 6.32315 492.469 4.08594C494.884 1.81321 497.778 0.676841 501.152 0.676841C504.525 0.676841 507.402 1.81321 509.781 4.08594C512.196 6.32315 513.403 9.00426 513.403 12.1293C513.403 15.2898 512.196 18.0064 509.781 20.2791C507.402 22.5163 504.525 23.6349 501.152 23.6349ZM598.697 57.5128L577.923 58.7912C577.568 57.0156 576.804 55.4176 575.632 53.9972C574.461 52.5412 572.916 51.3871 570.998 50.5348C569.116 49.647 566.861 49.2031 564.233 49.2031C560.718 49.2031 557.752 49.9489 555.338 51.4403C552.923 52.8963 551.716 54.8494 551.716 57.2997C551.716 59.2528 552.497 60.9041 554.059 62.2536C555.622 63.603 558.303 64.6861 562.103 65.5028L576.911 68.4858C584.865 70.1193 590.796 72.7472 594.702 76.3693C598.608 79.9915 600.561 84.75 600.561 90.6449C600.561 96.0071 598.981 100.712 595.821 104.761C592.696 108.809 588.399 111.969 582.93 114.242C577.497 116.479 571.229 117.598 564.127 117.598C553.296 117.598 544.667 115.343 538.239 110.833C531.847 106.288 528.1 100.109 527 92.2962L549.319 91.1243C549.993 94.4268 551.627 96.9482 554.219 98.6882C556.811 100.393 560.132 101.245 564.18 101.245C568.157 101.245 571.353 100.482 573.768 98.9545C576.218 97.392 577.461 95.3857 577.497 92.9354C577.461 90.8757 576.591 89.1889 574.887 87.875C573.182 86.5256 570.554 85.4957 567.003 84.7855L552.834 81.9624C544.844 80.3643 538.896 77.5945 534.99 73.6527C531.119 69.7109 529.184 64.6861 529.184 58.5781C529.184 53.3224 530.604 48.7947 533.445 44.995C536.321 41.1953 540.352 38.2656 545.537 36.206C550.757 34.1463 556.865 33.1165 563.86 33.1165C574.194 33.1165 582.326 35.3004 588.257 39.6683C594.223 44.0362 597.703 49.9844 598.697 57.5128Z" fill="#344A5F"/>
</svg>
